<svg xmlns="http://www.w3.org/2000/svg" viewBox="0 0 1200 300" role="img" aria-labelledby="title desc"><title id="title">Fundos Para Letras</title><desc id="desc">Plugin Zosma Labs para SPresenter</desc><defs><linearGradient id="g" x1="40" y1="30" x2="1160" y2="270" gradientUnits="userSpaceOnUse"><stop stop-color="#21D4FD"/><stop offset=".52" stop-color="#1677FF"/><stop offset="1" stop-color="#7A20FF"/></linearGradient><linearGradient id="bg" x1="0" x2="1"><stop stop-color="#070B14"/><stop offset="1" stop-color="#10142A"/></linearGradient></defs><rect width="1200" height="300" rx="28" fill="url(#bg)"/><g transform="translate(54 38) scale(.40)" fill="url(#g)"><path d="M83 171C139 102 248 82 390 108L277 173C205 147 139 148 83 171Z"/><path d="M407 119C342 184 280 245 222 302C180 343 145 376 108 394C87 405 70 402 62 388C54 373 63 350 84 326C165 236 272 166 407 119Z"/><path d="M107 398C169 405 254 393 343 351L418 410C292 427 183 424 107 398Z"/><path d="M309 283C337 274 355 254 364 223C371 255 390 275 420 283C390 291 372 311 364 343C355 311 337 291 309 283Z"/></g><rect x="924" y="72" width="210" height="156" rx="20" fill="#0E1628" stroke="#26334D" stroke-width="2"/><rect x="954" y="104" width="150" height="28" rx="14" fill="url(#g)" opacity=".85"/><rect x="970" y="143" width="118" height="28" rx="14" fill="#6D28D9" opacity=".75"/><rect x="944" y="182" width="170" height="28" rx="14" fill="#1D4ED8" opacity=".75"/><text x="250" y="105" fill="#A8B3CF" font-family="Montserrat,Arial,sans-serif" font-size="24" font-weight="600" letter-spacing="5">SPRESENTER PLUGIN</text><text x="250" y="166" fill="#FFFFFF" font-family="Montserrat,Arial,sans-serif" font-size="52" font-weight="700">Fundos Para Letras</text><text x="250" y="208" fill="#C3CAE0" font-family="Montserrat,Arial,sans-serif" font-size="24">Fundos independentes e personalizáveis para cada linha.</text><rect x="250" y="232" width="250" height="34" rx="17" fill="#111827" stroke="#26334D"/><text x="270" y="255" fill="#7DDCFF" font-family="Arial,sans-serif" font-size="17" font-weight="700">SPRESENTER · OPEN SOURCE</text></svg>